<?xml version="1.0" encoding="iso-8859-1"?>
<!-- Generator: Adobe Illustrator 21.0.0, SVG Export Plug-In . SVG Version: 6.00 Build 0)  -->
<svg version="1.1" id="Capa_1" xmlns="http://www.w3.org/2000/svg" xmlns:xlink="http://www.w3.org/1999/xlink" x="0px" y="0px"
	 viewBox="0 0 512 512" style="enable-background:new 0 0 512 512;" xml:space="preserve">
<polygon style="fill:#808080;" points="255.645,337.497 264.727,406.622 169.315,406.622 178.408,337.497 217.015,321.753 "/>
<polygon style="fill:#616161;" points="172.92,379.217 261.126,379.217 255.645,337.497 217.015,321.753 178.408,337.497 "/>
<path style="fill:#EBEBEB;" d="M434.03,75.813v69.52v151.084l-217.015,11.155L0,296.416V75.813C0,68.286,6.096,62.19,13.622,62.19
	h406.797C427.946,62.19,434.03,68.286,434.03,75.813z"/>
<path style="fill:#CCCCCC;" d="M406.008,210.076h-84.64c-13.262,0-24.011,10.749-24.011,24.011v15.279v88.131H420.1
	c7.693,0,13.93-6.237,13.93-13.93v-27.151v-86.34L406.008,210.076L406.008,210.076z"/>
<rect x="44.11" y="107.11" style="fill:#7CCBCC;" width="113.68" height="72.11"/>
<g>
	<path style="fill:#808080;" d="M512,169.343v15.279l-91.534,12.529l-95.088-12.529v-15.279c0-13.262,10.749-24.011,24.011-24.011
		h84.64h53.959C501.251,145.332,512,156.081,512,169.343z"/>
	<path style="fill:#808080;" d="M512,408.887v16.924c0,13.25-10.749,23.999-24.011,23.999h-138.6
		c-13.262,0-24.011-10.749-24.011-23.999v-16.924l93.311-10.718L512,408.887z"/>
</g>
<path style="fill:#CCCCCC;" d="M434.03,296.416v27.151c0,7.693-6.237,13.93-13.93,13.93H255.645h-77.238H13.622
	C6.096,337.497,0,331.401,0,323.886v-27.47H434.03z"/>
<path style="fill:#ADADAD;" d="M297.357,337.497H420.1c7.693,0,13.93-6.237,13.93-13.931v-27.15l0,0H297.357V337.497z"/>
<path style="fill:#EBEBEB;" d="M512,184.622v224.266H325.379v-71.39v-41.081V184.622H512z"/>
<rect x="361.85" y="217.53" style="fill:#A6E2E3;" width="113.68" height="72.11"/>
<path style="fill:#CCCCCC;" d="M313.329,414.122H120.717c-4.142,0-7.5-3.358-7.5-7.5s3.358-7.5,7.5-7.5h192.611
	c4.142,0,7.5,3.358,7.5,7.5S317.471,414.122,313.329,414.122z"/>
<g>
	<path style="fill:#4D4D4D;" d="M277.075,224.39H47.393c-4.142,0-7.5-3.358-7.5-7.5s3.358-7.5,7.5-7.5h229.682
		c4.143,0,7.5,3.358,7.5,7.5S281.218,224.39,277.075,224.39z"/>
	<path style="fill:#4D4D4D;" d="M277.075,263.764H47.393c-4.142,0-7.5-3.358-7.5-7.5s3.358-7.5,7.5-7.5h229.682
		c4.143,0,7.5,3.358,7.5,7.5S281.218,263.764,277.075,263.764z"/>
	<path style="fill:#4D4D4D;" d="M474.096,337.529H367.198c-4.143,0-7.5-3.358-7.5-7.5s3.357-7.5,7.5-7.5h106.897
		c4.143,0,7.5,3.358,7.5,7.5S478.239,337.529,474.096,337.529z"/>
	<path style="fill:#4D4D4D;" d="M474.096,376.903H367.198c-4.143,0-7.5-3.358-7.5-7.5s3.357-7.5,7.5-7.5h106.897
		c4.143,0,7.5,3.358,7.5,7.5S478.239,376.903,474.096,376.903z"/>
</g>
<g>
</g>
<g>
</g>
<g>
</g>
<g>
</g>
<g>
</g>
<g>
</g>
<g>
</g>
<g>
</g>
<g>
</g>
<g>
</g>
<g>
</g>
<g>
</g>
<g>
</g>
<g>
</g>
<g>
</g>
</svg>
