<svg id="Layer_1_1_" enable-background="new 0 0 64 64" height="512" viewBox="0 0 64 64" width="512" xmlns="http://www.w3.org/2000/svg"><path d="m59 27h-3.006c-.881 0-1.663-.576-1.909-1.422-.474-1.632-1.123-3.188-1.927-4.648-.426-.773-.282-1.734.342-2.359l2.127-2.127c.781-.781.781-2.047 0-2.828l-4.243-4.243c-.781-.781-2.047-.781-2.828 0l-2.127 2.127c-.624.624-1.585.768-2.359.342-1.46-.804-3.016-1.453-4.648-1.927-.846-.245-1.422-1.027-1.422-1.909v-3.006c0-1.105-.895-2-2-2h-6c-1.105 0-2 .895-2 2v3.006c0 .881-.576 1.663-1.422 1.909-1.632.474-3.188 1.123-4.648 1.927-.773.426-1.734.282-2.359-.342l-2.127-2.127c-.781-.781-2.047-.781-2.828 0l-4.243 4.243c-.781.781-.781 2.047 0 2.828l2.127 2.127c.624.624.768 1.585.342 2.359-.804 1.46-1.453 3.016-1.927 4.648-.245.846-1.027 1.422-1.909 1.422h-3.006c-1.105 0-2 .895-2 2v6c0 1.105.895 2 2 2h3.006c.881 0 1.663.576 1.909 1.422.474 1.632 1.123 3.188 1.927 4.648.426.773.282 1.734-.342 2.359l-2.127 2.127c-.781.781-.781 2.047 0 2.828l4.243 4.243c.781.781 2.047.781 2.828 0l2.127-2.127c.624-.624 1.585-.768 2.359-.342 1.46.804 3.016 1.453 4.648 1.927.846.245 1.422 1.027 1.422 1.909v3.006c0 1.105.895 2 2 2h6c1.105 0 2-.895 2-2v-3.006c0-.881.576-1.663 1.422-1.909 1.632-.474 3.188-1.123 4.648-1.927.773-.426 1.734-.282 2.359.342l2.127 2.127c.781.781 2.047.781 2.828 0l4.243-4.243c.781-.781.781-2.047 0-2.828l-2.127-2.127c-.624-.624-.768-1.585-.342-2.359.804-1.46 1.453-3.016 1.927-4.648.245-.846 1.027-1.422 1.909-1.422h3.006c1.105 0 2-.895 2-2v-6c0-1.105-.895-2-2-2zm-27 22c-9.389 0-17-7.611-17-17s7.611-17 17-17 17 7.611 17 17-7.611 17-17 17z" fill="#3449a3"/><g fill="#2e4191"><path d="m9.915 38.422c.404 1.393.944 2.727 1.591 3.997.617-.624.759-1.579.335-2.349-.804-1.46-1.453-3.016-1.927-4.648-.244-.846-1.026-1.422-1.908-1.422h-3.006c-1.105 0-2-.895-2-2v3c0 1.105.895 2 2 2h3.006c.882 0 1.664.576 1.909 1.422z"/><path d="m27 52.994c0-.881-.576-1.663-1.422-1.909-1.632-.474-3.188-1.123-4.648-1.927-.773-.426-1.734-.282-2.359.342l-2.127 2.127c-.781.781-2.047.781-2.828 0l-4.157-4.157-.086.086c-.781.781-.781 2.047 0 2.828l4.243 4.243c.781.781 2.047.781 2.828 0l2.127-2.127c.624-.624 1.585-.768 2.359-.342 1.46.804 3.016 1.453 4.648 1.927.846.245 1.422 1.027 1.422 1.909z"/><path d="m59 34h-3.006c-.881 0-1.663.576-1.909 1.422-.474 1.632-1.123 3.188-1.927 4.648-.424.77-.282 1.725.335 2.349.647-1.27 1.187-2.604 1.591-3.997.246-.846 1.028-1.422 1.91-1.422h3.006c1.105 0 2-.895 2-2v-3c0 1.105-.895 2-2 2z"/><path d="m54.542 47.471-4.157 4.157c-.781.781-2.047.781-2.828 0l-2.128-2.128c-.624-.624-1.585-.768-2.359-.342-1.46.804-3.016 1.453-4.648 1.927-.846.245-1.422 1.027-1.422 1.909v3c0-.881.576-1.663 1.422-1.909 1.632-.474 3.188-1.123 4.648-1.927.773-.426 1.734-.282 2.359.342l2.127 2.127c.781.781 2.047.781 2.828 0l4.243-4.243c.781-.781.781-2.047 0-2.828z"/><path d="m35 58h-6c-1.105 0-2-.895-2-2v3c0 1.105.895 2 2 2h6c1.105 0 2-.895 2-2v-3c0 1.105-.895 2-2 2z"/></g><path d="m60.396 9.604-5.396 5.396h-6v-6l5.396-5.396c-1.062-.384-2.202-.604-3.396-.604-5.523 0-10 4.477-10 10 0 1.194.22 2.334.604 3.396l-25.208 25.208c-1.062-.384-2.202-.604-3.396-.604-5.523 0-10 4.477-10 10 0 1.194.22 2.334.604 3.396l5.396-5.396h6v6l-5.396 5.396c1.062.384 2.202.604 3.396.604 5.523 0 10-4.477 10-10 0-1.194-.22-2.334-.604-3.396l25.208-25.208c1.062.384 2.202.604 3.396.604 5.523 0 10-4.477 10-10 0-1.194-.22-2.334-.604-3.396z" fill="#ffd45a"/><path d="m51 20c-1.194 0-2.334-.22-3.396-.604l-25.208 25.208c.281.776.471 1.595.555 2.445l24.654-24.654c1.061.385 2.201.605 3.395.605 5.523 0 10-4.477 10-10 0-.512-.048-1.011-.124-1.501-.725 4.81-4.864 8.501-9.876 8.501z" fill="#febe07"/><path d="m13 58c-.321 0-.638-.019-.951-.049l-2.445 2.445c1.062.384 2.202.604 3.396.604 5.523 0 10-4.477 10-10 0-.512-.048-1.011-.124-1.501-.725 4.81-4.864 8.501-9.876 8.501z" fill="#febe07"/><path d="m36.236 37.882c-.759-.728-1.236-1.747-1.236-2.882v-1.465c-.449.299-.917.573-1.424.79-1.006.431-2.145.431-3.151 0-.507-.217-.976-.491-1.424-.79v1.465c0 1.135-.477 2.154-1.236 2.882l4.235 2.118z" fill="#ffe5cf"/><path d="m34 21.049v-.049l.215 1.076c.459 2.294 2.446 3.964 4.785 4.022v-3.098c0-3.314-2.686-6-6-6h-2c-3.314 0-6 2.686-6 6v3.099l4.05-.044c2.742-.031 4.95-2.263 4.95-5.006z" fill="#633f0e"/><path d="m33.576 34.325c.507-.217.976-.491 1.424-.79 2.462-1.639 4-4.408 4-7.436-2.339-.058-4.326-1.728-4.785-4.022l-.215-1.077v.049c0 2.743-2.208 4.975-4.95 5.005l-4.05.045c0 3.028 1.538 5.797 4 7.436.449.299.917.573 1.424.79 1.007.431 2.145.431 3.152 0z" fill="#ffe5cf"/><path d="m33 17h-2c-3.314 0-6 2.686-6 6v1.901c0-3.314 2.686-6 6-6h2c3.314 0 6 2.686 6 6v-1.901c0-3.314-2.686-6-6-6z" fill="#754b11"/><path d="m33.857 39.071 2.379-1.19c-.759-.727-1.236-1.746-1.236-2.881v-1.465c-.449.299-.917.573-1.424.79-1.006.431-2.145.431-3.151 0-.507-.217-.976-.491-1.424-.79v1.165z" fill="#e8d0bc"/><path d="m27.764 37.882c-.719.689-1.69 1.118-2.764 1.118-1.202 0-2.267.541-3 1.38-.615.703-1 1.613-1 2.62v2h11v-5z" fill="#8cbeff"/><path d="m36.236 37.882c.719.689 1.69 1.118 2.764 1.118 1.202 0 2.267.541 3 1.38.615.703 1 1.613 1 2.62v2h-11v-5z" fill="#8cbeff"/></svg>